<svg width="471" height="436" xmlns="http://www.w3.org/2000/svg">

 <g>
  <title>Layer 1</title>
  <path id="svg_1" fill="#191919" d="m267.1304,222.08918c-0.48,-2 -8.3,-3.2 -32.68,-3.2c-23,0 -28.16,4.79 -28.79,5.94c-1.29,2.34 -0.24,31.5 2.92,37.59c2.85,5.5 7.39,6.67 10.47,7.22c0.52,3.28 2.43,9.25 4.87,12.28c3.34,4.16 18.68,3.22 22.37,0.06c3,-2.59 6.52,-9.68 7,-12.92c3.49,-0.57 8.58,-1.85 10.65,-7.26c2.03,-5.28 4.12,-35.85 3.19,-39.71z"/>
  <path id="svg_2" fill="#191919" d="m234.0004,292.68918c-1.36,0 -2.58,-0.06 -3.57,-0.15c-5.92,-0.55 -10.21,-2.44 -12.76,-5.61a34.16,34.16 0 0 1 -5.28,-10.84a20.64,20.64 0 0 1 -10.92,-10c-2,-3.79 -3.32,-11.66 -4,-23.41c-1.05,-17.66 0.4,-20.3 1.18,-21.72c2.53,-4.6 10.8,-10.09 35.8,-10.09c12,0 20.58,0.3 26.17,0.91c4.4,0.48 12.58,1.37 14.28,8.41c1.42,5.87 -1.1,38.28 -3.46,44.46c-2.05,5.36 -6,9.07 -11.86,11.07c-1.86,4.54 -5,9.63 -8.09,12.32c-4.29,3.69 -12.03,4.65 -17.49,4.65zm-4.29,-16.43c2.58,0.8 9.19,0.5 11.59,-0.57a24.5,24.5 0 0 0 4.12,-7.9a8,8 0 0 1 6.62,-6.63c3.84,-0.62 4.21,-1.58 4.45,-2.22c1.2,-3.63 2.69,-22.29 2.87,-31.2c-3.61,-0.41 -10.78,-0.86 -24.92,-0.86c-12.63,0 -18.72,1.53 -21.29,2.48c-0.08,2.75 0,7.52 0.35,13.51c0.69,10.53 1.83,15.06 2.21,15.92c1,2 2.3,2.52 4.74,3a8,8 0 0 1 6.5,6.61a27.05,27.05 0 0 0 2.76,7.86z"/>
  <path id="svg_3" fill="#191919" d="m302.8404,145.18918a66.15,66.15 0 1 0 -112.69,47c9.43,9.34 15.2,28.3 15.12,37.55s61.39,4.45 61.85,-0.17c1.24,-12.48 6.21,-27.91 15.32,-36.63a65.92,65.92 0 0 0 20.4,-47.75z"/>
  <path id="svg_4" fill="#191919" d="m228.5004,243.01918c-2.75,0 -5.38,-0.06 -7.82,-0.2a59.45,59.45 0 0 1 -13.14,-1.89c-9,-2.63 -10.28,-8.19 -10.25,-11.27c0.07,-7.65 -5.25,-24.37 -12.75,-31.79a74.15,74.15 0 1 1 126.3,-52.68a73.48,73.48 0 0 1 -22.87,53.54c-8,7.61 -11.92,21.8 -12.89,31.64c-0.74,7.43 -8.11,9.57 -23.34,11.31a210.66,210.66 0 0 1 -23.24,1.34zm-15.42,-17.15c3.67,0.8 11.58,1.51 23.68,1a145.83,145.83 0 0 0 23,-2.58c2,-12.49 7.3,-27.64 17.16,-37.08a58.1,58.1 0 1 0 -98.27,-45.38a58.3,58.3 0 0 0 17.19,44.69c10.08,10 16.08,28.05 17.24,39.35z"/>
  <g id="svg_5">
   <path id="svg_6" fill="#191919" d="m113.4104,158.13918c-2.2,2.11 5.12,34.74 7,36.38s26,-21.29 25.37,-24.4s-30.17,-14.09 -32.37,-11.98z"/>
   <path id="svg_7" fill="#191919" d="m120.5804,202.59918a8.33,8.33 0 0 1 -5.52,-2.08c-1.64,-1.47 -3.22,-2.85 -6.72,-18.66c-1,-4.32 -3.23,-15 -3.34,-21c0,-1.68 -0.1,-5.61 2.87,-8.46c3.91,-3.74 9.16,-2.94 18.74,0.12a148.24,148.24 0 0 1 15,5.72c7.11,3.21 11.13,5.82 12,10.42c1,5.25 -2.8,10.09 -11.71,18.93c-1.74,1.73 -10.68,10.49 -15.94,13.48a10.85,10.85 0 0 1 -5.38,1.53zm1.26,-34.86c0.73,4.31 1.82,9.58 2.87,14c3.2,-2.9 6.82,-6.42 9.55,-9.33c-3.66,-1.58 -8.42,-3.36 -12.42,-4.67z"/>
  </g>
  <g id="svg_8">
   <path id="svg_9" fill="#191919" d="m321.6804,185.51918c-2,2.26 7.62,34.28 9.58,35.78s24.36,-23.12 23.54,-26.17s-31.08,-11.92 -33.12,-9.61z"/>
   <path id="svg_10" fill="#191919" d="m331.4404,229.32918a8.36,8.36 0 0 1 -5,-1.72c-1.74,-1.33 -3.38,-2.59 -8.05,-18.11c-1.28,-4.24 -4.31,-14.75 -4.85,-20.75c-0.15,-1.67 -0.51,-5.58 2.25,-8.64c3.63,-4 8.92,-3.6 18.71,-1.24a148.16,148.16 0 0 1 15.34,4.65c7.32,2.69 11.51,5 12.72,9.52c1.38,5.17 -2.06,10.26 -10.3,19.73c-1.61,1.85 -9.89,11.23 -14.92,14.6a10.49,10.49 0 0 1 -5.9,1.96zm-0.6,-34.88c1,4.24 2.51,9.42 3.88,13.77c3,-3.12 6.33,-6.9 8.85,-10c-3.83,-1.33 -8.68,-2.76 -12.73,-3.77z"/>
  </g>
  <g id="svg_11">
   <path id="svg_12" fill="#191919" d="m320.9104,85.45918c-2,1.55 1.22,29 2.6,30.55s23.21,-15.29 23,-17.9s-23.61,-14.2 -25.6,-12.65z"/>
   <path id="svg_13" fill="#191919" d="m323.7704,124.08918a8.41,8.41 0 0 1 -6.16,-2.69c-1.44,-1.57 -2.68,-2.93 -4.28,-16.69c-0.43,-3.68 -1.38,-12.8 -0.94,-17.89c0.12,-1.43 0.45,-5.22 3.62,-7.68c4.46,-3.45 10,-1.45 16.81,1.53c21,9.21 21.41,13.93 21.65,16.75c0.39,4.57 -2.25,8.1 -11.77,15.77c-1.6,1.29 -9.84,7.83 -14.59,9.91a10.76,10.76 0 0 1 -4.34,0.99zm4.8,-27.79c0.18,2.28 0.43,4.75 0.7,7.08c1.76,-1.33 3.58,-2.77 5.19,-4.12c-1.86,-0.99 -3.92,-2.03 -5.89,-2.96z"/>
  </g>
  <g id="svg_14">
   <path id="svg_15" fill="#ffffff" d="m113.4104,158.13918c-2.2,2.11 5.12,34.74 7,36.38s26,-21.29 25.37,-24.4s-30.17,-14.09 -32.37,-11.98z"/>
  </g>
  <g id="svg_16">
   <path id="svg_17" fill="#ffffff" d="m321.6804,185.51918c-2,2.26 7.62,34.28 9.58,35.78s24.36,-23.12 23.54,-26.17s-31.08,-11.92 -33.12,-9.61z"/>
  </g>
  <g id="svg_18">
   <path id="svg_19" fill="#ffffff" d="m320.9104,85.45918c-2,1.55 1.22,29 2.6,30.55s23.21,-15.29 23,-17.9s-23.61,-14.2 -25.6,-12.65z"/>
  </g>
  <g id="svg_20">
   <path id="svg_21" fill="#e83a2a" d="m267.1304,222.08918c-0.48,-2 -8.3,-3.2 -32.68,-3.2c-23,0 -28.16,4.79 -28.79,5.94c-1.29,2.34 -0.24,31.5 2.92,37.59c2.85,5.5 7.39,6.67 10.47,7.22c0.52,3.28 2.43,9.25 4.87,12.28c3.34,4.16 18.68,3.22 22.37,0.06c3,-2.59 6.52,-9.68 7,-12.92c3.49,-0.57 8.58,-1.85 10.65,-7.26c2.03,-5.28 4.12,-35.85 3.19,-39.71z"/>
   <path id="svg_22" fill="#ffffff" d="m302.8404,145.18918a66.15,66.15 0 1 0 -112.69,47c9.43,9.34 15.2,28.3 15.12,37.55s61.39,4.45 61.85,-0.17c1.24,-12.48 6.21,-27.91 15.32,-36.63a65.92,65.92 0 0 0 20.4,-47.75z"/>
  </g>
  <g id="svg_23">
   <path id="svg_24" fill="#e83a2a" d="m219.3404,119.63918c-4.48,2.74 -4.12,60.38 -1.61,63.81s51.53,-26.34 51.67,-31.78s-45.56,-34.77 -50.06,-32.03z"/>
  </g>
  <text transform="matrix(1.44507, 0, 0, 1.59903, -75.4199, -154.728)" xml:space="preserve" text-anchor="start" font-family="'Red Hat Display'" font-size="41" id="svg_26" y="324.77648" x="96.90808" stroke-width="0" stroke="#000" fill="#bf0000">BudgetBeam</text>
 </g>
</svg>